/* XPM */
static char * back_xpm[] = {
"64 64 29 1",
" 	c None",
".	c #669344",
"+	c #809D49",
"@	c #A5AB37",
"#	c #B6CC45",
"$	c #55864A",
"%	c #191918",
"&	c #ABB846",
"*	c #555551",
"=	c #111110",
"-	c #3B3B39",
";	c #2A2A28",
">	c #FFCE0B",
",	c #B29008",
"'	c #665204",
")	c #3E3E3A",
"!	c #2E2E2C",
"~	c #1F1F1D",
"{	c #4D4D49",
"]	c #2F0D0C",
"^	c #4E1613",
"/	c #1F1E1D",
"(	c #4D4C49",
"_	c #3E3D3A",
":	c #DA5E94",
"<	c #4C4104",
"[	c #CCAE0C",
"}	c #C6D638",
"|	c #952257",
".+..++++.....++..+..@+++.....+++.++++..++++.++++.+..++++.....++.",
".+.++.++.+...++..+.+@.++.+...+#++++.+.++++.+++++.+.++.++.+...++.",
"+++++.+..+..+++++++@+.+..++.+##++++.+++...+++++++++++.+..+..++++",
"++++++...++++++++#++++...+++.@$+..++.++..++++++++@+@++@@.++@++++",
"+++++...++++.++++#@++...+.++.++..++....++..++.+.+@@++@.@#++#.+++",
".++.+.+++++.++++.+@$+.+++++.+#+..+.....++.+..++..+@.+.+.##+#++@+",
"++.+++++++..+++.++.+++@+++..#@+++.....++..+..+++++.+++++.#@#+@+.",
"++++++++++++++..+++%%%%%%%%%@$.++.%%%%%%%%%.++.++++@++++.&#@+@..",
"+++++++++++++++++++%%%%%%%%%++++..%%%%%%%%%+++.++++@@+++@$@+@+++",
"+++++++.+++++++++++%%%%%%%%%+++...%%%%%%%%%++++.+++.#++@+.$@@+++",
"++.++++.++++..++++.%%%******%%%%%%******%%%+++..++..##+@+.$@.@+@",
"+.++++++++.+.++++.+%%%******%%%%%%******%%%+.+.++.+..#@@+..$.@+@",
".+++++++++.+++...++%%%******%%%%%%******%%%.++++++..$#@..+..+@@.",
"+++++++..++.++..+++===------******------===++++++++.$$@..++.$@@.",
"..++.+..++....++..+===------******------===+++++..++.+..++...$@+",
".+..++..+.....++.+.===------******------===+++++.+..++..+.....++",
".+.++++..++++%%%%%%===;;;------------;;;===%%%%%%++.+..+.$$$...+",
".++++.+.++++.%%%%%%===;;;------------;;;===%%%%%%+.++$++..$...++",
"+++++.+++...+%%%%%%===;;;------------;;;===%%%%%%+$$$.+.++...+++",
"++..++.++..++%%%******;;;;;;;;;;;;;;;;;;******%%%..+++.+++++..$$",
"+..++....++..%%%******;;;;;;;;;;;;;;;;;;******%%%..++.....$$$$..",
"...+.....++.+%%%******;;;;;;;;;;;;;;;;;;******%%%..$$$..+..$$+++",
"+++.....++..+===;;;------;;;;;;;;;;;;------;;;===$$$...+++...++.",
"+++.+...++..+===;;;------;;;;;;;;;;;;------;;;===++$$.+++++..+..",
"++..+..++++++===;;;------;;;;;;;;;;;;------;;;===++.$..+++..$$$+",
"+...++++++++++++===;;;;;;---;;;;;;---;;;;;;===+++++++.$.+..$$$++",
"+..++++.++++++++===;;;;;;---;;;;;;---;;;;;;===++++.+++...$.+.+++",
"++++++.++++.++.+===;;;;;;---;;;;;;---;;;;;;===+++.++++.$$..+.+++",
".++++..+++.++.+++++===;;;;;;;;;;;;;;;;;;===.+++++++$..$$...+++..",
"+++++++++..++++++++===;;;;;;;;;;;;;;;;;;===++++++.++++..++++.+++",
".++++++++++++++++++===;;;;;;;;;;;;;;;;;;===+++++++++.+.++++.++++",
".+.+++++++++++++>>>>>>===;;;;;;;;;;;;===>>>>>>++++++.+++...+++++",
".+.++++..++++.++>>>>>>===;;;;;;;;;;;;===>>>>>>+.+..++.++..++++++",
".++++.+.++++.+++>>>>>>===;;;;;;;;;;;;===>>>>>>+...++....++..++.+",
"+++++.+++...+>>>,,,,,,'''============''',,,,,,>>>.+.....++.+..++",
"++++++...++++>>>,,,,,,'''============''',,,,,,>>>+.....++..+..++",
"+++++..##+++.>>>,,,,,,'''============''',,,,,,>>>+.+...++..+.++.",
".++.+.##+++.+>>>,,,''')))!!!!!!!!!!!!)))''',,,>>>..+..+++++++++.",
"+###++@@++..+>>>,,,''')))!!!!!!!!!!!!)))''',,,>>>..+++++++++++++",
"++###+@+++#++>>>,,,''')))!!!!!!!!!!!!)))''',,,>>>.++++.++++++++.",
"+++##@+++#+++~~~))))))))))))))))))))))))))))))~~~++++.++++.++.+.",
"++++@@+@@#+++~~~))))))))))))))))))))))))))))))~~~+++..+++.++.+++",
"++..$@@@#+++.~~~))))))))))))))))))))))))))))))~~~+++++++..++++++",
"+++.$$@@$..+.~~~{{{)))~~~))))))))))))~~~))){{{~~~+++++++++++++++",
"+.++++..++++.~~~{{{)))~~~))))))))))))~~~))){{{~~~.++++++++++++++",
"++++.+.++++.+~~~{{{)))~~~))))))))))))~~~))){{{~~~.++++..++++.+++",
"++++.+++...+++++~~~~~~]]]^^^^^^^^^^^^]]]~~~~~~++++++.+.++++.++++",
"+..++.++..++++++~~~~~~]]]^^^^^^^^^^^^]]]~~~~~~+++.++++..++++.+++",
"..++....++..++.+~~~~~~]]]^^^^^^^^^^^^]]]~~~~~~+.++++.+.++++.++++",
"..+.....++.+..++..+///((((((______((((((///..++.++++.+++...+++++",
"++.....++..+..+..++///((((((______((((((///.+++++..++.++..++++++",
"++.+...++..+.++..+.///((((((______((((((///&+:&+..++....++..++.+",
"+..+..+++++++++++..<<<[[[[[[//////[[[[[[<<<}:|:+..+.....++.+..++",
"...++++++++++++++.+<<<[[[[[[//////[[[[[[<<<.}:}+++.....++..+..++",
"..++++.+++++++++..+<<<[[[[[[//////[[[[[[<<<.&&&.++.+...++..+.++.",
"+++++.++++.++.+...++++<<<<<<+++.++<<<<<<&+++$&..+..+..+++++++++.",
"++++..+++.++.++..++++.<<<<<<++..++<<<<<<++++++++...+++++++++++++",
"++++++++..++++++++++.+<<<<<<.+.+++<<<<<<.}++++++..++++.++++++++.",
"+++++++++++++++++++..+++.++.++++++&&+++.&}}+..+++++++.++++.++.+.",
"+.+++++++++++++++++++++..++++++++.+&+&+++&&+.+++++++..+++.++.+++",
"+.++++..++++.+++++++++++++++++++.++&+&+++..&++..++++++++..++++++",
"++++.+.++++.++++.+++++++++++++++++..&++..++.++..++++++++++++++++",
"++++.+++...+++++.++++..++++.++++..++.+..++....+++.++++++++++++++",
".+..++..+.....+++++.+.++++.+++++.+..++..+.....+++.++++..++++.+++"};
