/* XPM */
static char * bad11_xpm[] = {
"64 64 14 1",
" 	c None",
".	c #669344",
"+	c #809D49",
"@	c #A5AB37",
"#	c #B6CC45",
"$	c #55864A",
"%	c #ABB846",
"&	c #1E1E29",
"*	c #EABE6E",
"=	c #952257",
"-	c #2A2E37",
";	c #DA5E94",
">	c #C6D638",
",	c #C43B64",
".+..++++.....++..+..@+++.....+++.++++..++++.++++.+..++++.....++.",
".+.++.++.+...++..+.+@.++.+...+#++++.+.++++.+++++.+.++.++.+...++.",
"+++++.+..+..+++++++@+.+..++.+##++++.+++...+++++++++++.+..+..++++",
"++++++...++++++++#++++...+++.@$+..++.++..++++++++@+@++@@.++@++++",
"+++++...++++.++++#@++...+.++.++..++....++..++.+.+@@++@.@#++#.+++",
".++.+.+++++.++++.+@$+.+++++.+#+..+.....++.+..++..+@.+.+.##+#++@+",
"++.+++++++..+++.++.+++@+++..#@+++.....++..+..+++++.+++++.#@#+@+.",
"++++++++++++++..++++++#.@.++@$.++.+...++..+.++.++++@++++.%#@+@..",
"+++++++++++++++++++@+++@$+++++++..+..+++++++++.++++@@+++@$@+@+++",
"+++++++.+++++++++++#.@+..+#++++...+++++++++++++.+++.#++@+.$@@+++",
"++.++++.++++..++++.+@.++++@+..+..++++.++++++++..++..##+@+.$@.@+@",
"+.++++++++.+.++++.+++++++@$+.+++++++.++++.++.+.++.+..#@@+..$.@+@",
".+++++++++.+++...+++++++++.+++.++++..+++.++.++++++..$#@..+..+@@.",
"+++++++..++.++..++++++#..++.#+.++++++++..++++++++++.$$@..++.$@@.",
"..++.+..++....++..++++@.++.#@.++++++++++++++++++..++.+..++...$@+",
".+..++..+.....++.+..++.@+..@$.++.+++++++++++++++.+..++..+.....++",
".+.++++..++++.++++..++++.....+++.++++..++++.+++++++.+..+.$$$...+",
".++++.+.++++.+++++++++..++++.++++++.+.++++.+++++++.++$++..$...++",
"+++++.+++...++++++++.+.++++.+++++++.+++...++++++++$$$.+.++...+++",
"++..++.++..+++++++++.+++...++++++..+++++++++++++...+++.+++++..$$",
"+..++....++..++.+..++.++..+++++++.++++.++++++++....++.....$$$$..",
"...+.....++.+..++.++....++..++.+.++++.++++.++.+.+..$$$..+..$$+++",
"+++.....++..+..++++.....++.+..++.+++..+++.++.++++$$$...+++...++.",
"+++.+...++..+.++.+.....++..+..++++++++++..+++++++++$$.+++++..+..",
"++..+..+++++++++.+.+...++..+.++.+++++++++++++++++++.$..+++..$$$+",
"+...+++++++++++++..+..+++++++++.+.+++++++++++++++++++.$.+..$$$++",
"+..++++.++++++++...+++++++++++++..++++..++++.+++++.+++...$.+.+++",
"++++++.++++.++.+.+++++.++++++++..+++.+.++++.+++++.++++.$$..+.+++",
".++++..+++.++.+++++++.++++.++.++.++++..++++.+++++++$..$$...+++..",
"+++++++++..+++++++++..+++.++.++++++.+.++++.++++++.++++..++++.+++",
".+++++++++++++++++++++++..+++++++++.+++...++++++++++.+.++++.++++",
".+.+++++++++++++++++++++++++++++..++.++..+++++++++++.+++...+++++",
".+.++++..++++.+++++++++++++++++..++....++..++.+.+..++.++..++++++",
".++++.+.++++.+++++++++..++++.++..+.....++.+..++...++....++..++.+",
"+++++.+++...++++++++.+.++++.+++++.....++..+..+++..+.....++.+..++",
"++++++...+++++++++++.+++...++++++.+...++..+.++.+++.....++..+..++",
"+++++..##+++.++++++++...++++.+@+..+..+++++++++.+++.+...++..+.++.",
".++.+.##+++.++++.+@.#.+++++.#+@...+++++++++++++.+..+..+++++++++.",
"+###++@@++..+++.++.#@+++++..#&&&&++++.++++++++.....+++++++++++++",
"++###+@+++#+++..+++@+++*++@&&&&&&&++.++++.++.+.+..++++.++++++++.",
"+++##@+++#++++++++++++*=*@&&&&--&&&..+++.++.+++++++++.++++.++.+.",
"++++@@+@@#+++++++++++#+*@--&&----&&&+++..+++++++++++..+++.++.+++",
"++..$@@@#+++..++++.++.--&-&&-----&&&&&++++++++++++++++++..++++++",
"+++.$$@@$..+.++++.+++--&--&----&&&&&&&&+++++++++++++++++++++++++",
"+.++++..++++.++++++#--&---&&&&&&&&---&&&+++.+++++.++++++++++++++",
"++++.+.++++.++++++---&--&&&&&&&&&&&----&&&.++++++.++++..++++.+++",
"++++.+++...+++++.--&&--&&&&&---&&&&&&---&&&+++++++++.+.++++.++++",
"+..++.++..+++++++&&---&&&&--------&&&&---&&&&.+++.++++..++++.+++",
"..++....++..++.+&---&&&&&----------&&&&-&----&+.++++.+.++++.++++",
"..+.....++.+..+-----------&&&&&&-----&&&&&---&&.++++.+++...+++++",
"++.....++..+.&&&-------&&&&&&&&&&-------&&&&&&&&+..++.++..++++++",
"++.+...++..+.++..+.....++.+..++.++++++...%+%+;%+..++....++..++.+",
"+..+..+++++++++++.....++..+..+++++%+++;+>++>;=;+..+.....++.+..++",
"...++++++++++++++.+...++..+.++.+.++%%;=;>++.>;>+++.....++..+..++",
"..++++.+++++++++..+..+++++++++.+++.+>>,>>+..%%%.++.+...++..+.++.",
"+++++.++++.++.+...+++++++++++++.+++++>+%%+++$%..+..+..+++++++++.",
"++++..+++.++.++..++++.++++++++..+++++%%%++++++++...+++++++++++++",
"++++++++..++++++++++.++++.++.+.+++%+.$%$.>++++++..++++.++++++++.",
"+++++++++++++++++++..+++.++.++++++%%+++.%>>+..+++++++.++++.++.+.",
"+.+++++++++++++++++++++..++++++++.+%+%+++%%+.+++++++..+++.++.+++",
"+.++++..++++.+++++++++++++++++++.++%+%+++..%++..++++++++..++++++",
"++++.+.++++.++++.+++++++++++++++++..%++..++.++..++++++++++++++++",
"++++.+++...+++++.++++..++++.++++..++.+..++....+++.++++++++++++++",
".+..++..+.....+++++.+.++++.+++++.+..++..+.....+++.++++..++++.+++"};
