/* XPM */
static char * bad7_xpm[] = {
"64 64 15 1",
" 	c None",
".	c #669344",
"+	c #809D49",
"@	c #A5AB37",
"#	c #B6CC45",
"$	c #55864A",
"%	c #ABB846",
"&	c #2A2E37",
"*	c #1E1E29",
"=	c #96CBC5",
"-	c #EABE6E",
";	c #952257",
">	c #DA5E94",
",	c #C6D638",
"'	c #C43B64",
".+..++++.....++..+..@+++.....+++.++++..++++.++++.+..++++.....++.",
".+.++.++.+...++..+.+@.++.+...+#++++.+.++++.+++++.+.++.++.+...++.",
"+++++.+..+..+++++++@+.+..++.+##++++.+++...+++++++++++.+..+..++++",
"++++++...++++++++#++++...+++.@$+..++.++..++++++++@+@++@@.++@++++",
"+++++...++++.++++#@++...+.++.++..++....++..++.+.+@@++@.@#++#.+++",
".++.+.+++++.++++.+@$+.+++++.+#+..+.....++.+..++..+@.+.+.##+#++@+",
"++.+++++++..+++.++.+++@+++..#@+++.....++..+..+++++.+++++.#@#+@+.",
"++++++++++++++..++++++#.@.++@$.++.+...++..+.++.++++@++++.%#@+@..",
"+++++++++++++++++++@+++@$+++++++..+..+++++++++.++++@@+++@$@+@+++",
"+++++++.+++++++++++#.@+..+#++++...+++++++++++++.+++.#++@+.$@@+++",
"++.++++.++++..++++.+@.++++@+..+..++++.++++++++..++..##+@+.$@.@+@",
"+.++++++++.+.++++.+++++++@$+.+++++++.++++.++.+.++.+..#@@+..$.@+@",
".+++++++++.+++...+++++++++.+++.++++..+++.++.++++++..$#@..+..+@@.",
"+++++++..++.++..++++++#..++.#+.++++++++..++++++++++.$$@..++.$@@.",
"..++.+..++....++..++++@.++.#@.++++++++++++++++++..++.+..++...$@+",
".+..++..+.....++.+..++.@+..@$.++.+&+++++++++++++.+..++..+.....++",
".+.++++..++++.++++..++++.....*++.+&++..++++.+++++++.+..+.$$$...+",
".++++.+.++++.+++++++++&.++++.*+++&&.+.++++.+++++++.++$++..$...++",
"+++++.+++...++++++++.+.&+++.+*+++&+.+++...++++++++$$$.+.++...+++",
"++..++.++..+++++++++.++&...++*+++..+++++++++++++...+++.+++++..$$",
"+..++....++..++.+..++.+&&.+++*+++.++++.++++&+++....++.....$$$$..",
"...+.....++.+..++.++....&+..+*.+.+*++.*+++.&+.+.+..$$$..+..$$+++",
"+++.....++..+..+++*.....++.+.**+.+*+..*++.&+.++++$$$...+++...++.",
"+++.+...++..+.++.+.*...++.&+.**+++*+++*+..&++++++++$$.+++++..+..",
"++..+..+++++++++.+.+*..++.&&.**.+*+++*++++&++++++++.$..+++..$$$+",
"+...+++++++++++++..+**+++++&+**.+*+++*+++++++++++++++.$.+..$$$++",
"+..++++.++++++++...++**++++&+**+.*+++*..++++.+++++.+++...$.+.+++",
"++++++.++++.++.+.+++++**&++&&**..*++**.++&+.+++++.++++.$$..+.+++",
".++++..+++.++&+++++++.**&&*+&***.*++**.+&&+.+++*+++$&&$$...+++..",
"+++++++++..+++&&++++..+*&&**&***+*+.*.+&&+.+++**+.&&&+..++++.+++",
".++++++++++++++&&++++++**&&*&*****+**+&&*.+++**++&&+.+.++++.++++",
".+.+++++++++++++&&+*++++**&&*********&&*.+&&***+++++.+++...+++++",
".+.++++..++++.++++++*+++***&***&****&&&++&&&**+.+..++.++..++++++",
".++++.+.++++.++++++++*&.+**&**&&*******+&&&**++...++....++..++.+",
"+++++.+++...++++++++.+*&&****&&***&***+&&&**.+++&&+.....++.+..++",
"++++++...+++++++*+++.+**&&**&&&***&***&****.++.&&+.....++..+..++",
"+++++..##++&&+++**+++..*&&*=&&****&&******++++&&++.+...++..+.++.",
".++.+.##+++.&&++.**&#.++*&**&**=***&&****+++&&&.+..+..+++++++++.",
"+###++@@++..++&&++*&&++++**&&******&&***+++&&&***..+++++++++++++",
"++###+@+++#+++..++**&&+-+*&&***&***&&&**+.+&&***..++++.++++++++.",
"+++##@+++#+++++++++**&&;-*&&**&*****&&*+.&&&**++++++&.++++.++.+.",
"++++@@+@@#++++++++++**&&&*&&*&&&&***&&*.&&&**++++++&&.+++.++.+++",
"++..$@@@#+++..++++.++***&&&&&&&&&&**&&*&&***++++++&&++++..++++++",
"+++.$$@@$..+&&&&+.+++.*****&&&&&*****&*&***++++++&++++++++++++++",
"+.++++..++++.&&&&&&&&&&&***&&&&******&*****.+++++.++++++++++++++",
"++++.+.++++.+++++&&&&&&&**&&&*********&***.++++++.++++..++++.+++",
"++++.+++...+++++**********&&&*********&**&&&&&++++++.+.++++.++++",
"+..++.++..++*************&&&******************&++.++++..++++.+++",
"..++....++..++.++++.+****&&************************+.+.++++.++++",
"..+.....++.+..++..++.+&&***************&&+...+******.+++...+++++",
"++.....++..+..+..++....+&*************&&.+..+++++..++.++..++++++",
"++.+...++..+.++..+.....++.+..++.++++++...%+%+>%+..++....++..++.+",
"+..+..+++++++++++.....++..+..+++++%+++>+,++,>;>+..+.....++.+..++",
"...++++++++++++++.+...++..+.++.+.++%%>;>,++.,>,+++.....++..+..++",
"..++++.+++++++++..+..+++++++++.+++.+,,',,+..%%%.++.+...++..+.++.",
"+++++.++++.++.+...+++++++++++++.+++++,+%%+++$%..+..+..+++++++++.",
"++++..+++.++.++..++++.++++++++..+++++%%%++++++++...+++++++++++++",
"++++++++..++++++++++.++++.++.+.+++%+.$%$.,++++++..++++.++++++++.",
"+++++++++++++++++++..+++.++.++++++%%+++.%,,+..+++++++.++++.++.+.",
"+.+++++++++++++++++++++..++++++++.+%+%+++%%+.+++++++..+++.++.+++",
"+.++++..++++.+++++++++++++++++++.++%+%+++..%++..++++++++..++++++",
"++++.+.++++.++++.+++++++++++++++++..%++..++.++..++++++++++++++++",
"++++.+++...+++++.++++..++++.++++..++.+..++....+++.++++++++++++++",
".+..++..+.....+++++.+.++++.+++++.+..++..+.....+++.++++..++++.+++"};
