/* XPM */
static char * exit_xpm[] = {
"64 64 48 1",
" 	c None",
".	c #669344",
"+	c #809D49",
"@	c #A5AB37",
"#	c #B6CC45",
"$	c #55864A",
"%	c #ABB846",
"&	c #8E8E8E",
"*	c #161616",
"=	c #606060",
"-	c #5C5C5C",
";	c #585858",
">	c #545454",
",	c #505050",
"'	c #4C4C4C",
")	c #484848",
"!	c #444444",
"~	c #797979",
"{	c #404040",
"]	c #3C3C3C",
"^	c #383838",
"/	c #343434",
"(	c #303030",
"_	c #2C2C2C",
":	c #282828",
"<	c #242424",
"[	c #626262",
"}	c #202020",
"|	c #1C1C1C",
"1	c #181818",
"2	c #141414",
"3	c #101010",
"4	c #0C0C0C",
"5	c #000000",
"6	c #010101",
"7	c #020202",
"8	c #4E4E4E",
"9	c #0B0B0B",
"0	c #030303",
"a	c #0A0A0A",
"b	c #090909",
"c	c #050505",
"d	c #3A3A3A",
"e	c #040404",
"f	c #DA5E94",
"g	c #C6D638",
"h	c #952257",
"i	c #C43B64",
".+..++++.....++..+..@+++.....+++.++++..++++.++++.+..++++.....++.",
".+.++.++.+...++..+.+@.++.+...+#++++.+.++++.+++++.+.++.++.+...++.",
"+++++.+..+..+++++++@+.+..++.+##++++.+++...+++++++++++.+..+..++++",
"++++++...++++++++#++++...+++.@$+..++.++..++++++++@+@++@@.++@++++",
"+++++...++++.++++#@++...+.++.++..++....++..++.+.+@@++@.@#++#.+++",
".++.+.+++++.++++.+@$+.+++++.+#+..+.....++.+..++..+@.+.+.##+#++@+",
"++.+++++++..+++.++.+++@+++..#@+++.....++..+..+++++.+++++.#@#+@+.",
"++++++++++++++..++++++#.@.++@$.++.+...++..+.++.++++@++++.%#@+@..",
"+++++++++++++++++++@+++@$+++++++..+..+++++++++.++++@@+++@$@+@+++",
"+++++++.+++++++++++#.@+..+#++++...+++++++++++++.+++.#++@+.$@@+++",
"++.++++.++++..++++.+@.++++@+..+..++++.++++++++..++..##+@+.$@.@+@",
"+.++++++++.+.++++.+++++++@$+.+++++++.++++.++.+.++.+..#@@+..$.@+@",
".+++++++++.+++...+++++++++.+++.++++..+++.++.++++++..$#@..+..+@@.",
"++++++&&&&&&&&&&&&&&&&&&&&&&&&&&&&&&&&&&&&&&&&&&&&&&&&&&&++.$@@.",
"..++.+&*************************************************&+...$@+",
".+..++&*===============================================*&.....++",
".+.+++&*-----------------------------------------------*&$$$...+",
".++++.&*;;;;;;;;;;;;;;;;;;;;;;;;;;;;;;;;;;;;;;;;;;;;;;;*&.$...++",
"+++++.&*>>>>>>>>>>>>>>>>>>>>>>>>>>>>>>>>>>>>>>>>>>>>>>>*&+...+++",
"++..++&*,,,,,,,,,,,,,,,,,,,,,,,,,,,,,,,,,,,,,,,,,,,,,,,*&+++..$$",
"+..++.&*'''''''''''''''''''''''''''''''''''''''''''''''*&.$$$$..",
"...+..&*)))))))))))))))))))))))))))))))))))))))))))))))*&..$$+++",
"+++...&**************!!!!!!!!!!!!!!!!!!!!!!!!!!!!!!!!!!*&+...++.",
"+++.+.&*~~~~~~~~~~~~*{{{{{{{{{{{{{{{{{{{{{{{{{{{{{{{{{{*&++..+..",
"++..+.&*~~~~~~~~~~~~*]]]]]]]]]]]]]]]]]]]]]]]]]]]]]]]]]]*&+..$$$+",
"+...++&*~~~~~~~~~~~~*^^^^^^^^^^^^^^^^^^^^^^^^^^^^^^^^^^*&..$$$++",
"+..+++&*~~~~~~~~~~~~*//////////////////////////////////*&$.+.+++",
"++++++&*~~~~~~~~~~~~*((((((((((((((((((((((((((((((((((*&..+.+++",
".++++.&*~~~~~~~~~~~~*__________________________________*&..+++..",
"++++++&*~~~~~~~~~~~~*::::::::::::::::::::::::::::::::::*&+++.+++",
".+++++&*~~~~~~~~~~~~************<<<<<<<<<<<<<<<<<<<<<<<*&++.++++",
".+.+++&*~~~~~~~~~~~~*[[[[[[[[[[*}}}}}}}}}}}}}}}}}}}}}}}*&..+++++",
".+.+++&*~~~~~~~~~~~~*[[[[[[[[[[*|||||||||||||||||||||||*&.++++++",
".++++.&*~~~~~~~~~~~~*[[[[[[[[[[*11111111111111111111111*&+..++.+",
"+++++.&*~~~~~~~~~~~~*[[[[[[[[[[*22222222222222222222222*&+.+..++",
"++++++&*~~~~~~~~~~~~*[[[[[[[[[[*33333333333333333333333*&..+..++",
"+++++.&*~~~~~~~~~~~~*[[[[[[[[[[*44444444444444444444444*&..+.++.",
".++.+.&*~~~~~~~~~~~~*[[[[[[[[[[*************55655577556*&++++++.",
"+###++&*~~~~~~~~~~~~*[[[[[[[[[[*88888888888*99999999999*&+++++++",
"++###+&*~~~~~~~~~~~~*[[[[[[[[[[*88888888888*55555507550*&++++++.",
"+++##@&*~~~~~~~~~~~~*[[[[[[[[[[*88888888888*5aaaaaaaaaa*&+.++.+.",
"++++@@&*~~~~~~~~~~~~*[[[[[[[[[[*88888888888*bbbbbbbbbbb*&.++.+++",
"++..$@&*~~~~~~~~~~~~*[[[[[[[[[[*88888888888*56655575767*&.++++++",
"+++.$$&*~~~~~~~~~~~~*[[[[[[[[[[*88888888888*********55c*&+++++++",
"+.++++&*~~~~~~~~~~~~*[[[[[[[[[[*88888888888*ddddddd*eee*&+++++++",
"++++.+&*~~~~~~~~~~~~*[[[[[[[[[[*88888888888*ddddddd*ee0*&+++.+++",
"++++.+&*~~~~~~~~~~~~*[[[[[[[[[[*88888888888*ddddddd*5e5*&++.++++",
"+..++.&*~~~~~~~~~~~~*[[[[[[[[[[*88888888888*ddddddd*5e5*&+++.+++",
"..++..&*~~~~~~~~~~~~*[[[[[[[[[[*88888888888*ddddddd*5ee*&++.++++",
"..+...&*************************************************&..+++++",
"++....&&&&&&&&&&&&&&&&&&&&&&&&&&&&&&&&&&&&&&&&&&&&&&&&&&&.++++++",
"++.+...++..+.++..+.....++.+..++.++++++...%+%+f%+..++....++..++.+",
"+..+..+++++++++++.....++..+..+++++%+++f+g++gfhf+..+.....++.+..++",
"...++++++++++++++.+...++..+.++.+.++%%fhfg++.gfg+++.....++..+..++",
"..++++.+++++++++..+..+++++++++.+++.+ggigg+..%%%.++.+...++..+.++.",
"+++++.++++.++.+...+++++++++++++.+++++g+%%+++$%..+..+..+++++++++.",
"++++..+++.++.++..++++.++++++++..+++++%%%++++++++...+++++++++++++",
"++++++++..++++++++++.++++.++.+.+++%+.$%$.g++++++..++++.++++++++.",
"+++++++++++++++++++..+++.++.++++++%%+++.%gg+..+++++++.++++.++.+.",
"+.+++++++++++++++++++++..++++++++.+%+%+++%%+.+++++++..+++.++.+++",
"+.++++..++++.+++++++++++++++++++.++%+%+++..%++..++++++++..++++++",
"++++.+.++++.++++.+++++++++++++++++..%++..++.++..++++++++++++++++",
"++++.+++...+++++.++++..++++.++++..++.+..++....+++.++++++++++++++",
".+..++..+.....+++++.+.++++.+++++.+..++..+.....+++.++++..++++.+++"};
