/* XPM */
static char * front_xpm[] = {
"64 64 33 1",
" 	c None",
".	c #669344",
"+	c #809D49",
"@	c #A5AB37",
"#	c #B6CC45",
"$	c #55864A",
"%	c #191918",
"&	c #ABB846",
"*	c #555551",
"=	c #111110",
"-	c #3B3B39",
";	c #2A2A28",
">	c #000000",
",	c #CC8A66",
"'	c #FFCE0B",
")	c #99674C",
"!	c #B29008",
"~	c #665204",
"{	c #4C3325",
"]	c #3E3E3A",
"^	c #2E2E2C",
"/	c #1F1F1D",
"(	c #4D4D49",
"_	c #4E1613",
":	c #FFE50B",
"<	c #1F1E1D",
"[	c #4D4C49",
"}	c #3E3D3A",
"|	c #4C4104",
"1	c #CCAE0C",
"2	c #DA5E94",
"3	c #952257",
"4	c #C6D638",
".+..++++.....++..+..@+++.....+++.++++..++++.++++.+..++++.....++.",
".+.++.++.+...++..+.+@.++.+...+#++++.+.++++.+++++.+.++.++.+...++.",
"+++++.+..+..+++++++@+.+..++.+##++++.+++...+++++++++++.+..+..++++",
"++++++...++++++++#++++...+++.@$+..++.++..++++++++@+@++@@.++@++++",
"+++++...++++.++++#@++...+.++.++..++....++..++.+.+@@++@.@#++#.+++",
".++.+.+++++.++++.+@$+.+++++.+#+..+.....++.+..++..+@.+.+.##+#++@+",
"++.+++++++..+++.++.++%%%%%%%%%+++...%%%%%%%%%+++++.+++++.#@#+@+.",
"++++++++++++++..+++++%%%%%%%%%.++.+.%%%%%%%%%+.++++@++++.&#@+@..",
"+++++++++++++++++++@+%%%%%%%%%++..+.%%%%%%%%%+.++++@@+++@$@+@+++",
"+++++++.+++++++++++#.%%%******%%%%%%******%%%++.+++.#++@+.$@@+++",
"++.++++.++++..++++.+@%%%******%%%%%%******%%%+..++..##+@+.$@.@+@",
"+.++++++++.+.++++.+++%%%******%%%%%%******%%%+.++.+..#@@+..$.@+@",
".+++++++++.+++...++++===------******------===+++++..$#@..+..+@@.",
"+++++++..++.++..+++++===------******------===++++++.$$@..++.$@@.",
"..++.+..++....++..+++===------******------===+++..++.+..++...$@+",
".+..++..+.....+%%%%%%===;;;***------***;;;===%%%%%%.++..+.....++",
".+.++++..++++.+%%%%%%===;;;***------***;;;===%%%%%%.+..+.$$$...+",
".++++.+.++++.++%%%%%%===;;;***------***;;;===%%%%%%++$++..$...++",
"+++++.+++...+++%%%******;;;;;;******;;;;;;******%%%$$.+.++...+++",
"++..++.++..++++%%%******;;;;;;******;;;;;;******%%%+++.+++++..$$",
"+..++....++..++%%%******;;;;;;******;;;;;;******%%%++.....$$$$..",
"...+.....++.+..===;;;------;;;;;;;;;;;;------;;;===$$$..+..$$+++",
"+++.....++..+..===;;;------;;;;;;;;;;;;------;;;===$...+++...++.",
"+++.+...++..+.+===;;;------;;;;;;;;;;;;------;;;===$$.+++++..+..",
"++..+..+++++++++.+===;;;--->>>;;;;;;>>>---;;;===+++.$..+++..$$$+",
"+...+++++++++++++.===;;;--->>>;;;;;;>>>---;;;===+++++.$.+..$$$++",
"+..++++.++++++++..===;;;--->>>;;;;;;>>>---;;;===++.+++...$.+.+++",
"++++++.++++.++.+.++++===;;;>>>,,,,,,>>>;;;===++++.++++.$$..+.+++",
".++++..+++.++.+++++++===;;;>>>,,,,,,>>>;;;===++++++$..$$...+++..",
"+++++++++..+++++++++.===;;;>>>,,,,,,>>>;;;===++++.++++..++++.+++",
".+++++++++++++++++''''''===))))))))))))===''''''++++.+.++++.++++",
".+.+++++++++++++++''''''===))))))))))))===''''''++++.+++...+++++",
".+.++++..++++.++++''''''===))))))))))))===''''''+..++.++..++++++",
".++++.+.++++.++'''!!!!!!~~~{{{{{{{{{{{{~~~!!!!!!'''+....++..++.+",
"+++++.+++...+++'''!!!!!!~~~{{{{{{{{{{{{~~~!!!!!!'''.....++.+..++",
"++++++...++++++'''!!!!!!~~~{{{{{{{{{{{{~~~!!!!!!'''....++..+..++",
"+++++..##+++.++'''!!!~~~]]]^^^^^^^^^^^^]]]~~~!!!'''+...++..+.++.",
".++.+.##+++.+++'''!!!~~~]]]^^^^^^^^^^^^]]]~~~!!!'''+..+++++++++.",
"+###++@@++..+++'''!!!~~~]]]^^^^^^^^^^^^]]]~~~!!!'''+++++++++++++",
"++###+@+++#+++.///]]]]]]]]]]]]]]]]]]]]]]]]]]]]]]///+++.++++++++.",
"+++##@+++#+++++///]]]]]]]]]]]]]]]]]]]]]]]]]]]]]]///++.++++.++.+.",
"++++@@+@@#+++++///]]]]]]]]]]]]]]]]]]]]]]]]]]]]]]///+..+++.++.+++",
"++..$@@@#+++..+///(((]]]///]]]]]]]]]]]]///]]](((///+++++..++++++",
"+++.$$@@$..+.++///(((]]]///]]]]]]]]]]]]///]]](((///+++++++++++++",
"+.++++..++++.++///(((]]]///]]]]]]]]]]]]///]]](((///+++++++++++++",
"++++.+.++++.++++++//////______::::::______//////+.++++..++++.+++",
"++++.+++...+++++.+//////______::::::______//////++++.+.++++.++++",
"+..++.++..++++++++//////______::::::______//////+.++++..++++.+++",
"..++....++..++.++++.+<<<[[[[[[}}}}}}[[[[[[<<<++.++++.+.++++.++++",
"..+.....++.+..++..++.<<<[[[[[[}}}}}}[[[[[[<<<++.++++.+++...+++++",
"++.....++..+..+..++..<<<[[[[[[}}}}}}[[[[[[<<<++++..++.++..++++++",
"++.+...++..+.++..+...|||111111<<<<<<111111|||2&+..++....++..++.+",
"+..+..+++++++++++....|||111111<<<<<<111111|||32+..+.....++.+..++",
"...++++++++++++++.+..|||111111<<<<<<111111|||24+++.....++..+..++",
"..++++.+++++++++..+..+++||||||.+++.+||||||..&&&.++.+...++..+.++.",
"+++++.++++.++.+...++++++||||||+.++++||||||++$&..+..+..+++++++++.",
"++++..+++.++.++..++++.++||||||..++++||||||++++++...+++++++++++++",
"++++++++..++++++++++.++++.++.+.+++&+.$&$.4++++++..++++.++++++++.",
"+++++++++++++++++++..+++.++.++++++&&+++.&44+..+++++++.++++.++.+.",
"+.+++++++++++++++++++++..++++++++.+&+&+++&&+.+++++++..+++.++.+++",
"+.++++..++++.+++++++++++++++++++.++&+&+++..&++..++++++++..++++++",
"++++.+.++++.++++.+++++++++++++++++..&++..++.++..++++++++++++++++",
"++++.+++...+++++.++++..++++.++++..++.+..++....+++.++++++++++++++",
".+..++..+.....+++++.+.++++.+++++.+..++..+.....+++.++++..++++.+++"};
