/* XPM */
static char * item_xpm[] = {
"64 64 63 1",
" 	c None",
".	c #669344",
"+	c #809D49",
"@	c #A5AB37",
"#	c #B6CC45",
"$	c #55864A",
"%	c #ABB846",
"&	c #321300",
"*	c #542600",
"=	c #FFFFFF",
"-	c #FFD752",
";	c #D7A030",
">	c #FFEAA5",
",	c #743D00",
"'	c #0A0300",
")	c #FFDF82",
"!	c #C28A1F",
"~	c #0C0000",
"{	c #110500",
"]	c #73502E",
"^	c #FFC330",
"/	c #572700",
"(	c #55381B",
"_	c #3F0F00",
":	c #4E2100",
"<	c #3B220A",
"[	c #915F2E",
"}	c #170000",
"|	c #3A1700",
"1	c #1F0B00",
"2	c #351300",
"3	c #442400",
"4	c #1D0B00",
"5	c #C37C19",
"6	c #0A0000",
"7	c #623B09",
"8	c #331700",
"9	c #73490F",
"0	c #250900",
"a	c #B1854F",
"b	c #2E1300",
"c	c #030000",
"d	c #230700",
"e	c #8B5D24",
"f	c #967E30",
"g	c #C3884E",
"h	c #070000",
"i	c #230C00",
"j	c #96731C",
"k	c #754219",
"l	c #060000",
"m	c #0E0000",
"n	c #A6640F",
"o	c #725112",
"p	c #1F0A00",
"q	c #EABE6E",
"r	c #952257",
"s	c #653A11",
"t	c #050000",
"u	c #150400",
"v	c #DA5E94",
"w	c #C6D638",
"x	c #C43B64",
".+..++++.....++..+..@+++.....+++.++++..++++.++++.+..++++.....++.",
".+.++.++.+...++..+.+@.++.+...+#++++.+.++++.+++++.+.++.++.+...++.",
"+++++.+..+..+++++++@+.+..++.+##++++.+++...+++++++++++.+..+..++++",
"++++++...++++++++#++++...+++.@$+..++.++..++++++++@+@++@@.++@++++",
"+++++...++++.++++#@++...+.++.++..++....++..++.+.+@@++@.@#++#.+++",
".++.+.+++++.++++.+@$+.+++++.+#+..+.....++.+..++..+@.+.+.##+#++@+",
"++.+++++++..+++.++.+++@+++..#@+++.....++..+..+++++.+++++.#@#+@+.",
"++++++++++++++..++++++#.@.++@$.++.+...++..+.++.++++@++++.%#@+@..",
"+++++++++++++++++++@+++@$+++++++..+..+++++++++.++++@@+++@$@+@+++",
"+++++++.+++++++++++#.@+..+#++++...+++++++++++++.+++.#++@+.$@@+++",
"++.++++.++++..++++.+@.++++@+..+..++++.++++++++..++..##+@+.$@.@+@",
"+.++++++++.+.++++.+++++++@$+.+++++++.++++.++.+.++.+..#@@+..$.@+@",
".+++++++++.+++...+++++++++.+++.++++..+++.++.++++++..$#@..+..+@@.",
"+++++++..++.++..++++++#..++.#+.++++++++..++++++++++.$$@..++.$@@.",
"..++.+..++....++..++++@.++.#@.++++++++++++++++++..++.+..++...$@+",
".+..++..+.....++.+..++.@+..@$.++.+++++++++++++++.+..++..+.....++",
".+.++++..++++.++++..++++.....+++.++++..++++.+++++++.+..+.$$$...+",
".++++.+.++++.+++++++++..++++.++++++.+.++++.+++++++.++$++..$...++",
"+++++.+++...++++++++.+.++++.++++&&*.+++...++++++++$$$.+.++...+++",
"++..++.++..+++++++++.+++...++++&=-;*++++++++++++...+++.+++++..$$",
"+..++....++..++.+..++.++..+++++&>;,-*+.++++++++....++.....$$$$..",
"...+.....++.+..++.++....++..++'=;,,-*.++++.++.+.+..$$$..+..$$+++",
"+++.....++..+..++++.....++.+..'),!,;~.+++.++.++++$$$...+++...++.",
"+++.+...++..+.++.+.....++..+.{]^,!,/~+++..+++++++++$$.+++++..+..",
"++..+..+++++++++.+.+...++..+.'()-;,/_~+++++++++++++.$..+++..$$$+",
"+...+++++++++++++..+..+++++&&:<[-;}_>-*++++++++++++++.$.+..$$$++",
"+..++++.++++++++...+++++++&)-;|1>}/,>;*.++++.+++++.+++...$.+.+++",
"++++++.++++.++.+.+++++.+++&^;!,2/}_,;3/*+++.+++++.++++.$$..+.+++",
".++++..+++.++.+++++++.+++4)5!3=,/6_,3>,-*++.+++++++$..$$...+++..",
"+++++++++..+++++++++..+++45783>;,2[3=-,;>*.++++++.++++..++++.+++",
".+++++++++++++++++++++++.4783=-!,2:>-;:;-*++++++++++.+.++++.++++",
".+.+++++++++++++++++++++4910,>;,2ab>;;:8;~++++++++++.+++...+++++",
".+.++++..++++.++++++++++c1d},;,2[ebf;g:/8~.++.+.+..++.++..++++++",
".++++.+.++++.+++++++++.h2d62},2ge}b9!:=,/i+..++...++....++..++.+",
"+++++.+++...++++++++.+.4jd6d}2ga}kl7(:>,;i+..+++..+.....++.+..++",
"++++++...+++++++++++.++4j)2d}2>e}/m(b=--,4+.++.+++.....++..+..++",
"+++++..##+++.++++++++.479^d62=-}/_}<:)^;n4++++.+++.+...++..+.++.",
".++.+.##+++.++++.+@.#.'bb9d:)^;m_>/b^^574++++++.+..+..+++++++++.",
"+###++@@++..+++.++.#@+'](::j^5o3>-5:9944++++++.....+++++++++++++",
"++###+@+++#+++..+++@+++'<(g:97b=,;5pb4+++.++.+.+..++++.++++++++.",
"+++##@+++#++++++++++++qr''12b7:)::6g[{++.++.+++++++++.++++.++.+.",
"++++@@+@@#+++++++++++#+q@@c1db)^:22s{++..+++++++++++..+++.++.+++",
"++..$@@@#+++..++++.++.#@@+tuu:^5:2dt++++++++++++++++++++..++++++",
"+++.$$@@$..+.++++.+++.$@$+.tc15n&t~+++++++++++++++++++++++++++++",
"+.++++..++++.++++++#+@.+++.+.tt&.++++..++++.+++++.++++++++++++++",
"++++.+.++++.+++++++#@++..++.+$.++++.+.++++.++++++.++++..++++.+++",
"++++.+++...+++++.++++..++++.+++++++.+++...++++++++++.+.++++.++++",
"+..++.++..+++++++++.+.++++.+++++.+..++..+.....+++.++++..++++.+++",
"..++....++..++.++++.+++...++++++.+..++++.....++.++++.+.++++.++++",
"..+.....++.+..++..++.++..+++++++.+.++.++.+...++.++++.+++...+++++",
"++.....++..+..+..++....++..++.+.+++++.+..+..+++++..++.++..++++++",
"++.+...++..+.++..+.....++.+..++.++++++...%+%+v%+..++....++..++.+",
"+..+..+++++++++++.....++..+..+++++%+++v+w++wvrv+..+.....++.+..++",
"...++++++++++++++.+...++..+.++.+.++%%vrvw++.wvw+++.....++..+..++",
"..++++.+++++++++..+..+++++++++.+++.+wwxww+..%%%.++.+...++..+.++.",
"+++++.++++.++.+...+++++++++++++.+++++w+%%+++$%..+..+..+++++++++.",
"++++..+++.++.++..++++.++++++++..+++++%%%++++++++...+++++++++++++",
"++++++++..++++++++++.++++.++.+.+++%+.$%$.w++++++..++++.++++++++.",
"+++++++++++++++++++..+++.++.++++++%%+++.%ww+..+++++++.++++.++.+.",
"+.+++++++++++++++++++++..++++++++.+%+%+++%%+.+++++++..+++.++.+++",
"+.++++..++++.+++++++++++++++++++.++%+%+++..%++..++++++++..++++++",
"++++.+.++++.++++.+++++++++++++++++..%++..++.++..++++++++++++++++",
"++++.+++...+++++.++++..++++.++++..++.+..++....+++.++++++++++++++",
".+..++..+.....+++++.+.++++.+++++.+..++..+.....+++.++++..++++.+++"};
