/* XPM */
static char * left_xpm[] = {
"64 64 36 1",
" 	c None",
".	c #669344",
"+	c #809D49",
"@	c #A5AB37",
"#	c #B6CC45",
"$	c #55864A",
"%	c #191918",
"&	c #ABB846",
"*	c #555551",
"=	c #3B3B39",
"-	c #111110",
";	c #2A2A28",
">	c #99674C",
",	c #000000",
"'	c #CC8A66",
")	c #4C3325",
"!	c #FFCE0B",
"~	c #B29008",
"{	c #171716",
"]	c #665204",
"^	c #1F1F1D",
"/	c #4D4D49",
"(	c #3E3E3A",
"_	c #FFE50B",
":	c #4E1613",
"<	c #2F0D0C",
"[	c #1F1E1D",
"}	c #4D4C49",
"|	c #3E3D3A",
"1	c #665706",
"2	c #CCAE0C",
"3	c #4C4104",
"4	c #DA5E94",
"5	c #C6D638",
"6	c #952257",
"7	c #C43B64",
".+..++++.....++..+..@+++.....+++.++++..++++.++++.+..++++.....++.",
".+.++.++.+...++..+.+@.++.+...+#++++.+.++++.+++++.+.++.++.+...++.",
"+++++.+..+..+++++++@+.+..++.+##++++.+++...+++++++++++.+..+..++++",
"++++++...++++++++#++++...+++.@$+..++.++..++++++++@+@++@@.++@++++",
"+++++...++++.++++#@++...+.++.++..++....++..++.+.+@@++@.@#++#.+++",
".++.+.+++++.++++.+@$+.+++++.+#+..+.....++.+..++..+@.+.+.##+#++@+",
"++.+++++++..+++.++.+++@+++..#@+%%%%%%%%%..+..+++++.+++++.#@#+@+.",
"++++++++++++++..++++++#.@.++@$.%%%%%%%%%..+.++.++++@++++.&#@+@..",
"+++++++++++++++++++@+++@$++++++%%%%%%%%%++++++.++++@@+++@$@+@+++",
"+++++++.+++++++++++#.@+..+#+%%%******%%%+++++++.+++.#++@+.$@@+++",
"++.++++.++++..++++.+@.++++@+%%%******%%%++++++..++..##+@+.$@.@+@",
"+.++++++++.+.++++.+++++++@$+%%%******%%%+.++.+.++.+..#@@+..$.@+@",
".+++++++++.+++...++++++++%%%***======---.++.++++++..$#@..+..+@@.",
"+++++++..++.++..++++++#..%%%***======---.++++++++++.$$@..++.$@@.",
"..++.+..++....++..++++@.+%%%***======---++++++++..++.+..++...$@+",
".+..++..+.....++.+..++%%%***===***;;;---%%%%%%++.+..++..+.....++",
".+.++++..++++.++++..++%%%***===***;;;---%%%%%%+++++.+..+.$$$...+",
".++++.+.++++.+++++++++%%%***===***;;;---%%%%%%++++.++$++..$...++",
"+++++.+++...+++++++---======***;;;;;;******%%%++++$$$.+.++...+++",
"++..++.++..++++++++---======***;;;;;;******%%%++...+++.+++++..$$",
"+..++....++..++.+..---======***;;;;;;******%%%+....++.....$$$$..",
"...+.....++.+..++.+---===;;;;;;;;;======;;;---+.+..$$$..+..$$+++",
"+++.....++..+..++++---===;;;;;;;;;======;;;---+++$$$...+++...++.",
"+++.+...++..+.++.+.---===;;;;;;;;;======;;;---+++++$$.+++++..+..",
"++..+..+++++++++.+.--->>>,,,''';;;===;;;---++++++++.$..+++..$$$+",
"+...+++++++++++++..--->>>,,,''';;;===;;;---++++++++++.$.+..$$$++",
"+..++++.++++++++...--->>>,,,''';;;===;;;---+.+++++.+++...$.+.+++",
"++++++.++++.++.+.++)))>>>,,,======;;;;;;---.+++++.++++.$$..+.+++",
".++++..+++.++.+++++)))>>>,,,======;;;;;;---.+++++++$..$$...+++..",
"+++++++++..++++++++)))>>>,,,======;;;;;;---++++++.++++..++++.+++",
".+++++++++++++++++++++)))===!!!!!!;;;---..++++++++++.+.++++.++++",
".+.+++++++++++++++++++)))===!!!!!!;;;---.+++++++++++.+++...+++++",
".+.++++..++++.++++++++)))===!!!!!!;;;---+..++.+.+..++.++..++++++",
".++++.+.++++.+++++++++..+!!!~~~~~~!!!..++.+..++...++....++..++.+",
"+++++.+++...++++++++.+.++!!!~~~~~~!!!.++..+..+++..+.....++.+..++",
"++++++...+++++++++++.+++.!!!~~~~~~!!!.++..+.++.+++.....++..+..++",
"+++++..##+++.++++++++.{{{]]]~~~~~~]]]{{{++++++.+++.+...++..+.++.",
".++.+.##+++.++++.+@.#.{{{]]]~~~~~~]]]{{{+++++++.+..+..+++++++++.",
"+###++@@++..+++.++.#@+{{{]]]~~~~~~]]]{{{++++++.....+++++++++++++",
"++###+@+++#+++..+++@++{{{^^^]]]]]]^^^{{{+.++.+.+..++++.++++++++.",
"+++##@+++#++++++++++++{{{^^^]]]]]]^^^{{{.++.+++++++++.++++.++.+.",
"++++@@+@@#+++++++++++#{{{^^^]]]]]]^^^{{{.+++++++++++..+++.++.+++",
"++..$@@@#+++..++++.++.{{{^^^///(((^^^{{{++++++++++++++++..++++++",
"+++.$$@@$..+.++++.+++.{{{^^^///(((^^^{{{++++++++++++++++++++++++",
"+.++++..++++.++++++#+@{{{^^^///(((^^^{{{+++.+++++.++++++++++++++",
"++++.+.++++.+++++++#@+___:::^^^{{{:::<<<++.++++++.++++..++++.+++",
"++++.+++...+++++.++++.___:::^^^{{{:::<<<..++++++++++.+.++++.++++",
"+..++.++..+++++++++.+.___:::^^^{{{:::<<<+.....+++.++++..++++.+++",
"..++....++..++.++++.++[[[}}}}}}||||||[[[.....++.++++.+.++++.++++",
"..+.....++.+..++..++.+[[[}}}}}}||||||[[[.+...++.++++.+++...+++++",
"++.....++..+..+..++...[[[}}}}}}||||||[[[.+..+++++..++.++..++++++",
"++.+...++..+.++..+.....++111222222333+...&+&+4&+..++....++..++.+",
"+..+..+++++++++++.....++.111222222333+4+5++5464+..+.....++.+..++",
"...++++++++++++++.+...++.1112222223334645++.545+++.....++..+..++",
"..++++.+++++++++..+..+++++++333333.+55755+..&&&.++.+...++..+.++.",
"+++++.++++.++.+...++++++++++333333+++5+&&+++$&..+..+..+++++++++.",
"++++..+++.++.++..++++.++++++333333+++&&&++++++++...+++++++++++++",
"++++++++..++++++++++.++++.++.+.+++&+.$&$.5++++++..++++.++++++++.",
"+++++++++++++++++++..+++.++.++++++&&+++.&55+..+++++++.++++.++.+.",
"+.+++++++++++++++++++++..++++++++.+&+&+++&&+.+++++++..+++.++.+++",
"+.++++..++++.+++++++++++++++++++.++&+&+++..&++..++++++++..++++++",
"++++.+.++++.++++.+++++++++++++++++..&++..++.++..++++++++++++++++",
"++++.+++...+++++.++++..++++.++++..++.+..++....+++.++++++++++++++",
".+..++..+.....+++++.+.++++.+++++.+..++..+.....+++.++++..++++.+++"};
