/* XPM */
static char * right_xpm[] = {
"64 64 36 1",
" 	c None",
".	c #669344",
"+	c #809D49",
"@	c #A5AB37",
"#	c #B6CC45",
"$	c #55864A",
"%	c #191918",
"&	c #ABB846",
"*	c #555551",
"=	c #111110",
"-	c #3B3B39",
";	c #2A2A28",
">	c #CC8A66",
",	c #000000",
"'	c #99674C",
")	c #4C3325",
"!	c #FFCE0B",
"~	c #B29008",
"{	c #171716",
"]	c #665204",
"^	c #EABE6E",
"/	c #952257",
"(	c #1F1F1D",
"_	c #3E3E3A",
":	c #4D4D49",
"<	c #2F0D0C",
"[	c #4E1613",
"}	c #FFE50B",
"|	c #1F1E1D",
"1	c #3E3D3A",
"2	c #4D4C49",
"3	c #DA5E94",
"4	c #4C4104",
"5	c #CCAE0C",
"6	c #665706",
"7	c #C6D638",
".+..++++.....++..+..@+++.....+++.++++..++++.++++.+..++++.....++.",
".+.++.++.+...++..+.+@.++.+...+#++++.+.++++.+++++.+.++.++.+...++.",
"+++++.+..+..+++++++@+.+..++.+##++++.+++...+++++++++++.+..+..++++",
"++++++...++++++++#++++...+++.@$+..++.++..++++++++@+@++@@.++@++++",
"+++++...++++.++++#@++...+.++.++..++....++..++.+.+@@++@.@#++#.+++",
".++.+.+++++.++++.+@$+.+++++.+#+..+.....++.+..++..+@.+.+.##+#++@+",
"++.+++++++..+++.++.+++@+++..#@+++.....++..+..+++++.+++++.#@#+@+.",
"++++++++++++++..++++++#.%%%%%%%%%.+...++..+.++.++++@++++.&#@+@..",
"+++++++++++++++++++@+++@%%%%%%%%%.+..+++++++++.++++@@+++@$@+@+++",
"+++++++.+++++++++++#.@+.%%%%%%%%%.+++++++++++++.+++.#++@+.$@@+++",
"++.++++.++++..++++.+@.++%%%******%%%+.++++++++..++..##+@+.$@.@+@",
"+.++++++++.+.++++.++++++%%%******%%%.++++.++.+.++.+..#@@+..$.@+@",
".+++++++++.+++...+++++++%%%******%%%.+++.++.++++++..$#@..+..+@@.",
"+++++++..++.++..++++++#.===------***%%%..++++++++++.$$@..++.$@@.",
"..++.+..++....++..++++@.===------***%%%+++++++++..++.+..++...$@+",
".+..++..+.....++.+..++.@===------***%%%+++++++++.+..++..+.....++",
".+.++++..++++.++++%%%%%%===;;;***---***%%%+.+++++++.+..+.$$$...+",
".++++.+.++++.+++++%%%%%%===;;;***---***%%%.+++++++.++$++..$...++",
"+++++.+++...++++++%%%%%%===;;;***---***%%%++++++++$$$.+.++...+++",
"++..++.++..+++++++%%%******;;;;;;***------===+++...+++.+++++..$$",
"+..++....++..++.+.%%%******;;;;;;***------===++....++.....$$$$..",
"...+.....++.+..++.%%%******;;;;;;***------===.+.+..$$$..+..$$+++",
"+++.....++..+..+++===;;;------;;;;;;;;;---===++++$$$...+++...++.",
"+++.+...++..+.++.+===;;;------;;;;;;;;;---===++++++$$.+++++..+..",
"++..+..+++++++++.+===;;;------;;;;;;;;;---===++++++.$..+++..$$$+",
"+...+++++++++++++..+.===;;;---;;;>>>,,,'''===++++++++.$.+..$$$++",
"+..++++.++++++++...++===;;;---;;;>>>,,,'''===+++++.+++...$.+.+++",
"++++++.++++.++.+.++++===;;;---;;;>>>,,,'''===++++.++++.$$..+.+++",
".++++..+++.++.+++++++===;;;;;;------,,,''')))++++++$..$$...+++..",
"+++++++++..+++++++++.===;;;;;;------,,,''')))++++.++++..++++.+++",
".++++++++++++++++++++===;;;;;;------,,,''')))+++++++.+.++++.++++",
".+.+++++++++++++++++++++===;;;!!!!!!---)))++++++++++.+++...+++++",
".+.++++..++++.++++++++++===;;;!!!!!!---))).++.+.+..++.++..++++++",
".++++.+.++++.+++++++++..===;;;!!!!!!---)))+..++...++....++..++.+",
"+++++.+++...++++++++.+.++++!!!~~~~~~!!!+..+..+++..+.....++.+..++",
"++++++...+++++++++++.+++...!!!~~~~~~!!!+..+.++.+++.....++..+..++",
"+++++..##+++.++++++++...+++!!!~~~~~~!!!+++++++.+++.+...++..+.++.",
".++.+.##+++.++++.+@.#.++{{{]]]~~~~~~]]]{{{+++++.+..+..+++++++++.",
"+###++@@++..+++.++.#@+++{{{]]]~~~~~~]]]{{{++++.....+++++++++++++",
"++###+@+++#+++..+++@+++^{{{]]]~~~~~~]]]{{{++.+.+..++++.++++++++.",
"+++##@+++#++++++++++++^/{{{(((]]]]]]((({{{+.+++++++++.++++.++.+.",
"++++@@+@@#+++++++++++#+^{{{(((]]]]]]((({{{++++++++++..+++.++.+++",
"++..$@@@#+++..++++.++.#@{{{(((]]]]]]((({{{++++++++++++++..++++++",
"+++.$$@@$..+.++++.+++.$@{{{(((___:::((({{{++++++++++++++++++++++",
"+.++++..++++.++++++#+@.+{{{(((___:::((({{{+.+++++.++++++++++++++",
"++++.+.++++.+++++++#@++.{{{(((___:::((({{{.++++++.++++..++++.+++",
"++++.+++...+++++.++++..+<<<[[[{{{((([[[}}}++++++++++.+.++++.++++",
"+..++.++..+++++++++.+.++<<<[[[{{{((([[[}}}....+++.++++..++++.+++",
"..++....++..++.++++.+++.<<<[[[{{{((([[[}}}...++.++++.+.++++.++++",
"..+.....++.+..++..++.++.|||111111222222|||...++.++++.+++...+++++",
"++.....++..+..+..++....+|||111111222222|||..+++++..++.++..++++++",
"++.+...++..+.++..+.....+|||111111222222|||+&+3&+..++....++..++.+",
"+..+..+++++++++++.....++..+444555555666+7++73/3+..+.....++.+..++",
"...++++++++++++++.+...++..+44455555566637++.737+++.....++..+..++",
"..++++.+++++++++..+..++++++44455555566677+..&&&.++.+...++..+.++.",
"+++++.++++.++.+...++++++++++++444444+7+&&+++$&..+..+..+++++++++.",
"++++..+++.++.++..++++.++++++++444444+&&&++++++++...+++++++++++++",
"++++++++..++++++++++.++++.++.+444444.$&$.7++++++..++++.++++++++.",
"+++++++++++++++++++..+++.++.++++++&&+++.&77+..+++++++.++++.++.+.",
"+.+++++++++++++++++++++..++++++++.+&+&+++&&+.+++++++..+++.++.+++",
"+.++++..++++.+++++++++++++++++++.++&+&+++..&++..++++++++..++++++",
"++++.+.++++.++++.+++++++++++++++++..&++..++.++..++++++++++++++++",
"++++.+++...+++++.++++..++++.++++..++.+..++....+++.++++++++++++++",
".+..++..+.....+++++.+.++++.+++++.+..++..+.....+++.++++..++++.+++"};
