/* XPM */
static char * wall_xpm[] = {
"64 64 12 1",
" 	c None",
".	c #809D49",
"+	c #669344",
"@	c #40713C",
"#	c #55864A",
"$	c #2F5538",
"%	c #243D34",
"&	c #663F39",
"*	c #24161A",
"=	c #381C24",
"-	c #452A2F",
";	c #1A2731",
".+..+..+.+++..++.+..+..+.+++..++.+..+..+.+++..++.+..+..+.+++..++",
"....+.++.++.........+.++.++.........+.++.++.........+.++.++.....",
".....+++.....+@......+++.............+++.............+++........",
"....+++....++@#$....+++....+.@.$....+++....+.@......+++....+....",
"..+.+.....++@++#$.+.@.....+.@#@#$.+.@.....+.@#@...+.+.....+....+",
".+.......++$#++#+$.@#@+..++$#+##+$.@#@+..++$#+#@++.......++...+.",
".........#$#++++#+@#++@++.$##+++#+@#++@++.$##++#@............++.",
".........@##++++#+##+++@++@#++++#+##+++@++@#+++++@+@+...........",
"......+..#@#+++#$#@#++++@@$#####$#@#++++@@$#####@$@+@+..........",
".+....+..#$$@@@%$@##++++#@$%$$$%$@##++++#@$%$$$@@$@++@.....++...",
"+........@@###@@@@##++++@$@@@@#@@@##++++@$@@@@#@$@#++#@..+.+....",
"........#$@###$@++$$@$$$$$@####@++$$@$$$$$@####@@@++++@..+...+++",
"......++@$@@%$@#++#$@$$@@$$@##@#++#$@$$@@$$@##@#$@++++#+..+..++.",
"+..+.+++$$$%$@@++++#$$$@+$$$$$@++++#$$$@+$$$$$@#%@#+#@$@.++++..+",
".++..++.+$%@#$#++++#@$@++#%$$@#++++#@$@++#%$$@##%$@@@@$#@++++..+",
".++++++@@$###@##+++#@$#+++@%%@##+++#@$#+++@%%@#$$@@@++#@$+++..++",
".+..++##$$@###@##+#@$@#++++$%$@##+#@$@#++++$%$@$%%$$$$$$@+++..++",
"....++#@$%$$$$$$$$$$@##++++@$%$$$$$$@##++++@$%$$$$$@#####@+.....",
".....+@$+@$$@@$@$@@@$#+++++@$%%@$@@@$#+++++@$%%$$@@@#####$+.....",
"....++$@++@@##@$@@@@%%$@@@$%$$$$@@@@%%$@@@$%$$$$$@@@@###@$.+....",
"..+.+#$#++#@#++$$@@$$@$@##@$$@@$$@@$$@$@##@$$@@$%$$%%&$@@#+....+",
".+..#$@++++@@++@$%$%@#@$##@@$@@@$%$%@#@$##@@$@@$%%$**=*%@++...+.",
"....#$@++++#$$$$$%%$#+@@$$$$%%%$$%%$#+@@$$$$%%%%%%$$$@%@.....++.",
"....+%@#+#@$-&*%%%%@+++@@%%$@%%%%%%@+++@@%%$@%%%%%$$@+$@........",
"....@$%$@@$$%**%%%@#++++$%$##$%%%%@#++++$%$##$%$%$$@+++$........",
".+..%@#####@@$%%%$@#++++#$###@$%%$@#++++#$###@$$$$@#+++#$..++...",
"+...$@##++##@%%@$@##++++@#####@@$@##++++@#####@$$@@#++++#$.+....",
"....$@@#++@@%$$$+#$@###@$@##@@@$+#$@###@$@##@@@@$$$#+++#@$...+++",
"...+@$;---;%$$@@++#$$$$@@$%$$%$@++#$$$$@@$%$$%$@@$$$$@@$$++..++.",
"+..#@$**=*$$$@##+++@@@@@#%$@@$@#+++@@@@@#%$@@$@###@@@@##@$+++..+",
".++##@$%%$$$@@+#+++#@@@++%$@@$@#+++#@@@++%$@@$@#++#@@#+++#$++..+",
".++++++@@$###@##+++#@$#+++@%%@##+++#@$#+++@%%@#$$@@@++#@$+++..++",
".+..++##$$@###@##+#@$@#++++$%$@##+#@$@#++++$%$@$%%$$$$$$@+++..++",
"....++#@$%$$$$$$$$$$@##++++@$%$$$$$$@##++++@$%$$$$$@#####@+.....",
".....+@$+@$$@@$@$@@@$#+++++@$%%@$@@@$#+++++@$%%$$@@@#####$+.....",
"....++$@++@@##@$@@@@%%$@@@$%$$$$@@@@%%$@@@$%$$$$$@@@@###@$.+....",
"..+.+#$#++#@#++$$@@$$@$@##@$$@@$$@@$$@$@##@$$@@$%$$%%&$@@#+....+",
".+..#$@++++@@++@$%$%@#@$##@@$@@@$%$%@#@$##@@$@@$%%$**=*%@++...+.",
"....#$@++++#$$$$$%%$#+@@$$$$%%%$$%%$#+@@$$$$%%%%%%$$$@%@.....++.",
"....+%@#+#@$-&*%%%%@+++@@%%$@%%%%%%@+++@@%%$@%%%%%$$@+$@........",
"....@$%$@@$$%**%%%@#++++$%$##$%%%%@#++++$%$##$%$%$$@+++$........",
".+..%@#####@@$%%%$@#++++#$###@$%%$@#++++#$###@$$$$@#+++#$..++...",
"+...$@##++##@%%@$@##++++@#####@@$@##++++@#####@$$@@#++++#$.+....",
"....$@@#++@@%$$$+#$@###@$@##@@@$+#$@###@$@##@@@@$$$#+++#@$...+++",
"...+@$;---;%$$@@++#$$$$@@$%$$%$@++#$$$$@@$%$$%$@@$$$$@@$$++..++.",
"+..#@$**=*$$$@##+++@@@@@#%$@@$@#+++@@@@@#%$@@$@###@@@@##@$+++..+",
".++##@$%%$$$@@+#+++#@@@++%$@@$@#+++#@@@++%$@@$@#++#@@#+++#$++..+",
".++++@@@$$$%@##+++++@$@+++@#+@#+++++@$@+++@#+@#+++++@###@$++..++",
".++++#@@$$$$%@@++++@$@#+++##+$#++++@$@#+++##+$#++++#$@@@@$++..++",
"...+++###@$$$%%$$$$%$#+++++@@$%$$$$%$#+++++@@$%$$@$$$--@#++.....",
"....+++##@@$@@####@@$#+++++#@@@###@@$#+++++#@@@######%*@........",
"....+++++#@$@@#####@*$#++#@$$@@####@*$#++#@$$@@######$@#...+....",
"..+.+++++##$$@#####$$@$@$$@@$@@####$$@$@$$@@$@@###+#@@@+..+....+",
".+.....++###$$$@@@$%@@######@@$@@@$%@@######@@$@@@@$%#...++...+.",
".......+++##%**=&&-$@#######$**=&&-$@#######$**=&&$@@........++.",
".......+++#@@;**=**$@@####@$%;**=**$@@####@$%;**=**@............",
"......+.++#@@@@$$$@;$%%$$$**$@@$$$@;$%%$$$**$@@$$$@#..+.........",
".+....+.++@@@@@@@@@$***--=**$@@@@@@$***--=**$@@@@@@+..+....++...",
"+........+#@@@@@@@@@@%****%@@@@@@@@@@%****%@@@@@@#+......+.+....",
".........+..++#++@@@@@@@@@@++##++@@@@@@@@@@++##+.........+...+++",
"......++..+..++..#@@@@@@@##..++..#@@@@@@@##..++.......++..+..++.",
"+..+.++..++++..++.+@@@@##++++..++.+@@@@##++++..++..+.++..++++..+",
".++..++.+++++..+.++..++.+++++..+.++..++.+++++..+.++..++.+++++..+",
".++....+++++..+++.++....+++++..++.++....+++++..++.++....+++++..+"};
